HIERARCHY
ROOT root
{
	OFFSET	0.000000	0.000000	0.000000
	CHANNELS 6 Xposition Yposition Zposition Zrotation Yrotation Xrotation
	JOINT lhipjoint
	{
		OFFSET	0.000000	0.000000	0.000000
		CHANNELS 3 Zrotation Yrotation Xrotation
		JOINT lfemur
		{
			OFFSET	1.568570	-1.734431	1.152047
			CHANNELS 3 Zrotation Yrotation Xrotation
			JOINT ltibia
			{
				OFFSET	2.393623	-6.576430	0.000000
				CHANNELS 3 Zrotation Yrotation Xrotation
				JOINT lfoot
				{
					OFFSET	2.509516	-6.894845	0.000000
					CHANNELS 3 Zrotation Yrotation Xrotation
					JOINT ltoes
					{
						OFFSET	0.171714	-0.471779	1.886817
						CHANNELS 3 Zrotation Yrotation Xrotation
						End Site
						{
							OFFSET	0.000000	-0.000000	0.981458
						}
					}
				}
			}
		}
	}
	JOINT rhipjoint
	{
		OFFSET	0.000000	0.000000	0.000000
		CHANNELS 3 Zrotation Yrotation Xrotation
		JOINT rfemur
		{
			OFFSET	-1.281526	-1.734433	1.152048
			CHANNELS 3 Zrotation Yrotation Xrotation
			JOINT rtibia
			{
				OFFSET	-2.268611	-6.232963	0.000000
				CHANNELS 3 Zrotation Yrotation Xrotation
				JOINT rfoot
				{
					OFFSET	-2.541434	-6.982537	0.000000
					CHANNELS 3 Zrotation Yrotation Xrotation
					JOINT rtoes
					{
						OFFSET	-0.233090	-0.640414	1.931196
						CHANNELS 3 Zrotation Yrotation Xrotation
						End Site
						{
							OFFSET	-0.000000	-0.000000	1.020130
						}
					}
				}
			}
		}
	}
	JOINT lowerback
	{
		OFFSET	0.000000	0.000000	0.000000
		CHANNELS 3 Zrotation Yrotation Xrotation
		JOINT upperback
		{
			OFFSET	-0.070956	2.104600	-0.278785
			CHANNELS 3 Zrotation Yrotation Xrotation
			JOINT thorax
			{
				OFFSET	-0.008258	2.136621	-0.082789
				CHANNELS 3 Zrotation Yrotation Xrotation
				JOINT lowerneck
				{
					OFFSET	0.019810	2.171597	0.048578
					CHANNELS 3 Zrotation Yrotation Xrotation
					JOINT upperneck
					{
						OFFSET	0.032389	1.777986	0.244347
						CHANNELS 3 Zrotation Yrotation Xrotation
						JOINT head
						{
							OFFSET	0.010261	1.741935	-0.496642
							CHANNELS 3 Zrotation Yrotation Xrotation
							End Site
							{
								OFFSET	0.001698	1.830569	-0.196534
							}
						}
					}
				}
				JOINT lclavicle
				{
					OFFSET	0.019810	2.171597	0.048578
					CHANNELS 3 Zrotation Yrotation Xrotation
					JOINT lhumerus
					{
						OFFSET	3.191776	1.359067	-0.314124
						CHANNELS 3 Zrotation Yrotation Xrotation
						JOINT lradius
						{
							OFFSET	4.852470	-0.000000	-0.000000
							CHANNELS 3 Zrotation Yrotation Xrotation
							JOINT lwrist
							{
								OFFSET	3.555840	-0.000000	0.000000
								CHANNELS 3 Zrotation Yrotation Xrotation
								JOINT lhand
								{
									OFFSET	1.777920	-0.000000	0.000000
									CHANNELS 3 Zrotation Yrotation Xrotation
									JOINT lfingers
									{
										OFFSET	0.693203	-0.000000	0.000000
										CHANNELS 3 Zrotation Yrotation Xrotation
										End Site
										{
											OFFSET	0.558878	-0.000000	0.000000
										}
									}
								}
								JOINT lthumb
								{
									OFFSET	1.777920	-0.000000	0.000000
									CHANNELS 3 Zrotation Yrotation Xrotation
									End Site
									{
										OFFSET	0.567411	-0.000000	0.567411
									}
								}
							}
						}
					}
				}
				JOINT rclavicle
				{
					OFFSET	0.019810	2.171597	0.048578
					CHANNELS 3 Zrotation Yrotation Xrotation
					JOINT rhumerus
					{
						OFFSET	-3.289992	1.241910	-0.268986
						CHANNELS 3 Zrotation Yrotation Xrotation
						JOINT rradius
						{
							OFFSET	-4.644620	-0.000000	0.000000
							CHANNELS 3 Zrotation Yrotation Xrotation
							JOINT rwrist
							{
								OFFSET	-3.407030	-0.000000	0.000000
								CHANNELS 3 Zrotation Yrotation Xrotation
								JOINT rhand
								{
									OFFSET	-1.703520	-0.000000	0.000000
									CHANNELS 3 Zrotation Yrotation Xrotation
									JOINT rfingers
									{
										OFFSET	-0.619577	-0.000000	0.000000
										CHANNELS 3 Zrotation Yrotation Xrotation
										End Site
										{
											OFFSET	-0.499519	-0.000000	0.000000
										}
									}
								}
								JOINT rthumb
								{
									OFFSET	-1.703520	-0.000000	0.000000
									CHANNELS 3 Zrotation Yrotation Xrotation
									End Site
									{
										OFFSET	-0.507146	-0.000000	0.507146
									}
								}
							}
						}
					}
				}
			}
		}
	}
}
MOTION
Frames:	9
Frame Time:	0.008333
34.450039 17.980233 -1.518570 -32.261779 81.092663 -39.766544 0.000000 0.000000 0.000000 -10.428396 2.514235 -11.652443 0.374152 3.926305 10.882504 0.284011 3.821502 -12.620749 0.247305 -3.200006 -8.836080 0.000000 0.000000 0.000000 24.726899 -5.674751 16.263413 -2.965255 -11.078646 30.008011 -1.597983 3.537949 -7.219241 -0.460018 -4.350744 12.065576 6.034862 5.755497 9.614252 0.399524 8.410854 -0.277749 -4.016350 4.012644 -4.858750 2.719227 -1.034010 -29.405061 -0.394262 -2.504956 26.133731 -1.094058 -0.804819 13.719513 0.000000 0.000000 0.000000 -49.475591 58.067060 74.173485 102.266510 -59.423740 -70.602549 -0.000002 0.000000 -31.025803 35.391889 -21.001237 -14.283313 -7.125020 0.000002 0.000000 4.222434 4.822474 -3.861431 0.000000 0.000000 0.000000 77.022509 -6.446400 47.098434 -125.233976 54.745739 -89.975167 0.000002 -0.000000 -23.978085 -28.639816 -22.398435 11.753586 7.125020 -0.000002 0.000000 0.313076 -55.133078 -0.079961
34.736659 17.985093 -1.526214 -36.620967 80.707300 -43.635412 0.000000 0.000000 0.000000 -9.413111 1.998162 -11.637349 0.205661 2.918299 8.060338 0.333564 3.475938 -13.095617 0.246799 -3.196757 -8.827019 0.000000 0.000000 0.000000 25.789326 -5.462749 15.704218 -3.338215 -11.687685 31.913559 -1.624804 2.710033 -8.309657 -0.385581 -3.987581 11.041733 6.537261 5.686514 8.923941 0.534329 8.325358 -0.470998 -4.070853 3.968888 -4.632464 2.613769 -1.116224 -29.683523 -0.173367 -2.659755 26.316172 -1.023623 -0.843308 13.854430 0.000000 0.000000 0.000000 -48.805953 58.611260 74.274300 103.362937 -59.314397 -71.545994 -0.000002 0.000001 -30.587242 35.163241 -21.212047 -14.297615 -7.125020 0.000002 0.000000 4.044760 4.638498 -3.711645 0.000000 0.000000 0.000000 76.779668 -6.527182 47.443475 -126.648954 54.260755 -91.127199 0.000002 -0.000000 -24.541905 -28.369712 -22.459329 11.656580 7.125020 -0.000002 0.000000 0.618292 -55.142978 -0.154041
35.022870 17.974010 -1.536441 -39.563185 80.413680 -46.133881 0.000000 0.000000 0.000000 -8.691065 1.442516 -11.685603 0.105505 2.093378 5.769721 0.383143 3.279446 -13.626830 0.216340 -2.994339 -8.262989 0.000000 0.000000 0.000000 26.520382 -5.262631 15.060759 -3.768005 -12.335136 33.997355 -1.640450 1.992729 -9.276218 -0.324714 -3.662610 10.129353 6.793464 5.625776 8.295987 0.642775 8.225553 -0.650412 -4.026524 3.920716 -4.457850 2.536919 -1.172496 -29.952017 -0.041024 -2.761368 26.456520 -0.982443 -0.870612 13.969113 0.000000 0.000000 0.000000 -48.346389 59.073982 74.237078 104.328480 -59.209848 -72.375898 -0.000002 0.000001 -29.996748 34.999730 -21.438230 -14.353387 -7.125020 0.000002 0.000000 3.904396 4.420644 -3.598348 0.000000 0.000000 0.000000 76.540783 -6.697609 47.788011 -128.083358 53.739857 -92.287694 0.000002 -0.000000 -25.065900 -28.047790 -22.398874 11.477656 7.125020 -0.000002 0.000000 0.947235 -55.009974 -0.230874
35.311100 17.945995 -1.550793 -41.028658 80.292640 -47.235498 0.000000 0.000000 0.000000 -8.380298 0.905659 -11.765279 0.051337 1.461469 4.023340 0.431198 3.239106 -14.199682 0.173877 -2.686111 -7.406047 0.000000 0.000000 0.000000 26.801905 -5.124360 14.407132 -4.239806 -12.988709 36.170834 -1.650053 1.443086 -10.064825 -0.278285 -3.392980 9.374824 6.761907 5.568896 7.725960 0.702231 8.104669 -0.794546 -3.881751 3.866805 -4.312774 2.509684 -1.197369 -30.205363 -0.017415 -2.804657 26.551371 -0.981105 -0.885868 14.059733 0.000000 0.000000 0.000000 -48.115336 59.440894 74.041511 105.162613 -59.113216 -73.092102 -0.000002 0.000001 -29.269650 34.920639 -21.659747 -14.448505 -7.125020 0.000002 0.000000 3.816599 4.186918 -3.534347 0.000000 0.000000 0.000000 76.317012 -6.954203 48.128275 -129.514288 53.189523 -93.437467 0.000002 -0.000000 -25.518985 -27.675725 -22.224193 11.223356 7.125020 -0.000002 0.000000 1.297961 -54.743296 -0.306775
35.600997 17.900337 -1.569087 -41.402947 80.329953 -47.353318 0.000000 0.000000 0.000000 -8.425716 0.436848 -11.870028 0.025952 1.039532 2.860084 0.478880 3.320463 -14.817782 0.130468 -2.328263 -6.413759 0.000000 0.000000 0.000000 26.710105 -5.062931 13.798158 -4.744612 -13.631318 38.387075 -1.657937 1.051569 -10.690201 -0.242492 -3.168933 8.749427 6.513796 5.505486 7.237815 0.722235 7.961183 -0.886483 -3.666467 3.805853 -4.184387 2.527846 -1.191202 -30.437062 -0.091939 -2.791347 26.583579 -1.014761 -0.889344 14.117424 0.000000 0.000000 0.000000 -48.122189 59.678419 73.673542 105.862996 -59.027503 -73.692893 -0.000002 0.000001 -28.440180 34.933241 -21.866738 -14.581450 -7.125020 0.000002 0.000000 3.787411 3.946446 -3.524911 0.000000 0.000000 0.000000 76.118835 -7.282725 48.453152 -130.918516 52.618261 -94.557548 0.000002 -0.000000 -25.869761 -27.273850 -21.944196 10.909604 7.125020 -0.000002 0.000000 1.649992 -54.357875 -0.374237
35.890903 17.836714 -1.590262 -41.160608 80.458063 -46.988266 0.000000 0.000000 0.000000 -8.690628 0.061126 -11.982679 0.016721 0.834567 2.295561 0.527773 3.476694 -15.482678 0.089136 -1.925618 -5.300141 0.000000 0.000000 0.000000 26.401742 -5.071656 13.272751 -5.280078 -14.257757 40.635120 -1.666111 0.777298 -11.199259 -0.214611 -2.982419 8.229808 6.167399 5.427598 6.875627 0.725954 7.800426 -0.916215 -3.424959 3.738310 -4.073362 2.560117 -1.161042 -30.637177 -0.219703 -2.731286 26.532736 -1.061690 -0.882226 14.132558 0.000000 0.000000 0.000000 -48.355288 59.748490 73.139294 106.422563 -58.955987 -74.172497 -0.000002 0.000001 -27.556762 35.034058 -22.061147 -14.752644 -7.125020 0.000002 0.000000 3.814133 3.697412 -3.568211 0.000000 0.000000 0.000000 75.956754 -7.670827 48.748938 -132.273957 52.036166 -95.630431 0.000002 -0.000000 -26.089317 -26.875996 -21.576904 10.561894 7.125020 -0.000002 0.000000 1.972304 -53.880788 -0.425213
36.179096 17.755365 -1.613126 -40.671021 80.612794 -46.531657 0.000000 0.000000 0.000000 -9.048421 -0.219745 -12.063784 0.016669 0.833295 2.291891 0.575099 3.670927 -16.149747 0.053423 -1.491539 -4.102400 0.000000 0.000000 0.000000 26.010016 -5.138614 12.852339 -5.849190 -14.869436 42.927168 -1.674780 0.574597 -11.642494 -0.193781 -2.834858 7.819319 5.820327 5.331725 6.686157 0.732967 7.629134 -0.883024 -3.194807 3.665082 -3.993868 2.569620 -1.116598 -30.800840 -0.347402 -2.638442 26.396645 -1.096836 -0.865999 14.104728 0.000000 0.000000 0.000000 -48.783949 59.626662 72.463269 106.830407 -58.902148 -74.521829 -0.000002 0.000001 -26.671446 35.212365 -22.250406 -14.962193 -7.125020 0.000002 0.000000 3.888577 3.433500 -3.657744 0.000000 0.000000 0.000000 75.840695 -8.116660 49.006136 -133.561583 51.454006 -96.641586 0.000002 0.000000 -26.157072 -26.520189 -21.155201 10.212839 7.125020 -0.000002 0.000000 2.234772 -53.355239 -0.454933
36.464634 17.657082 -1.636889 -40.127201 80.762718 -46.187803 0.000000 0.000000 0.000000 -9.430300 -0.405166 -12.067026 0.024150 1.002940 2.758703 0.610906 3.880537 -16.698104 0.027570 -1.071887 -2.946627 0.000000 0.000000 0.000000 25.595529 -5.260570 12.537423 -6.457912 -15.469626 45.285335 -1.682943 0.406827 -12.055022 -0.178241 -2.719427 7.498568 5.518791 5.216238 6.698824 0.752110 7.449397 -0.794577 -2.994956 3.585595 -3.965141 2.534430 -1.064061 -30.924974 -0.439651 -2.522763 26.194151 -1.104336 -0.840928 14.042433 0.000000 0.000000 0.000000 -49.372449 59.313190 71.674635 107.075356 -58.869113 -74.731540 -0.000002 0.000001 -25.827770 35.452388 -22.441657 -15.207353 -7.125020 0.000002 0.000000 3.999477 3.150029 -3.784006 0.000000 0.000000 0.000000 75.776657 -8.627478 49.225140 -134.764821 50.883170 -97.578926 0.000002 0.000000 -26.067578 -26.242778 -20.721748 9.896814 7.125020 -0.000002 0.000000 2.412382 -52.833818 -0.462704
36.747479 17.543037 -1.661275 -39.607399 80.898961 -46.031635 0.000000 0.000000 0.000000 -9.809214 -0.476089 -11.962759 0.040607 1.300250 3.577431 0.619435 4.098360 -16.947123 0.011202 -0.683401 -1.878053 0.000000 0.000000 0.000000 25.167512 -5.442782 12.307718 -7.112671 -16.060180 47.730966 -1.689012 0.248458 -12.453928 -0.163033 -2.601412 7.170941 5.275594 5.079955 6.915309 0.784500 7.259336 -0.662547 -2.830920 3.498263 -3.999201 2.449978 -1.006026 -31.004620 -0.482819 -2.389879 25.952748 -1.079330 -0.806773 13.956845 0.000000 0.000000 0.000000 -50.088825 58.826538 70.796867 107.150368 -58.858890 -74.795746 -0.000002 0.000001 -25.055148 35.735890 -22.640661 -15.483082 -7.125020 0.000002 0.000000 4.134310 2.844615 -3.936046 0.000000 0.000000 0.000000 75.766133 -9.209975 49.414721 -135.867772 50.336203 -98.431351 0.000002 0.000000 -25.831723 -26.073287 -20.315632 9.642027 7.125020 -0.000002 0.000000 2.486285 -52.363314 -0.450508
